PathFileType	4	(X/Y/Z)	/home/abdul/Desktop/myosuite/custom_workspace/IK/output/S16_12_2.trc
DataRate	CameraRate	NumFrames	NumMarkers	Units	OrigDataRate	OrigDataStartFrame	OrigNumFrames
200.0	200.0	67	3	mm	200.0	1	1280
Frame#	Time	V_Shoulder			V_Elbow			V_Wrist		
		X1	Y1	Z1	X2	Y2	Z2	X3	Y3	Z3

1	0.0	-144.97542813071018	619.9276526944565	283.1382024253847	-264.7611715565745	500.76125526776275	19.069311401708553	-223.29323801662957	338.4930139932117	24.515502837308148
2	0.005	-144.96589636810435	619.928002174508	283.164498161027	-264.7689666044463	500.7517972580497	19.08674953472809	-223.29160235615325	338.47954693133636	24.536195503042833
3	0.01	-144.9565601003062	619.9286468252166	283.19060184630143	-264.7763047598463	500.74175190129085	19.104251821614135	-223.2888553790238	338.4649459684807	24.55669401941006
4	0.015	-144.94744625321934	619.929601381101	283.2164509254829	-264.78313333597237	500.7311318767787	19.12175846049437	-223.28495290051796	338.4492137813368	24.57689971990825
5	0.02	-144.9385814992632	619.9308802715218	283.2419823365358	-264.7893990505818	500.7199528664577	19.13920700861575	-223.2798532559287	338.43235773638446	24.596710157669683
6	0.025	-144.92999213584775	619.9324975624121	283.2671327214384	-264.7950482071939	500.7082336418845	19.156532512780686	-223.27351759845624	338.4143900907334	24.61601934520062
7	0.03	-144.9217039607962	619.9344668974238	283.2918386427206	-264.800026886634	500.6959961430355	19.173667656424186	-223.2659102008895	338.3953281829814	24.63471802166122
8	0.035	-144.91374214506575	619.9368014386888	283.31603680556185	-264.80428114865657	500.6832655482259	19.190542923578143	-223.25699876006712	338.3751946127968	24.652693948020037
9	0.04	-144.90613110312992	619.9395138074011	283.3396642847717	-264.80775724333756	500.67007033440314	19.207086779915226	-223.24675470304499	338.35401740790957	24.669832230319273
10	0.045	-144.89889436139785	619.942616024422	283.3626587559656	-264.81040183187145	500.65644232706995	19.223225871007468	-223.23515349383402	338.3318301771809	24.686015671182524
11	0.05	-144.89205442505633	619.94611945111	283.38495873022555	-264.8121622163581	500.6424167390983	19.238885237873955	-223.22217493951342	338.3086722484028	24.701125149586325
12	0.055	-144.88563264373042	619.9500347305711	283.4065037915284	-264.8129865781103	500.62803219769773	19.253988549828044	-223.20780349446403	338.2845887894738	24.71504002880136
13	0.06	-144.87964907636555	619.9543717295245	283.42723483621074	-264.81282422395833	500.6133307588078	19.268458354567482	-223.19202856141138	338.2596309115902	24.7276385922884
14	0.065	-144.87412235574322	619.9591394809685	283.44709431373343	-264.81162583997445	500.5983579081934	19.28221634538072	-223.17484478791386	338.2338557530944	24.738798507208266
15	0.07	-144.86906955304661	619.9643461278308	283.46602646800017	-264.8093437519858	500.58316254853867	19.29518364526972	-223.15625235688168	338.20732654262673	24.74839731507522
16	0.075	-144.86450604289863	619.9699988677727	283.4839775784823	-264.8059321921875	500.56779697184845	19.30728110771409	-223.13625726966433	338.18011264023914	24.75631294894869
17	0.08	-144.86044536929916	619.9761038993155	283.5008962003965	-264.8013475711166	500.5523168164897	19.31842963372342	-223.11487162020177	338.15228955514783	24.762424276420255
18	0.085	-144.85689911289018	619.9826663694425	283.516733403183	-264.7955487541889	500.5367810082264	19.32855050474437	-223.092113858696	338.123938938823	24.766611667511345
19	0.09	-144.85387675998118	619.9896903228264	283.53144300653156	-264.78849734195165	500.5212516846342	19.337565730907023	-223.06800904322574	338.0951485521458	24.7687575864527
20	0.095	-144.8513855737669	619.9971786528135	283.5449818132021	-264.78015795314775	500.50579410230785	19.345398414011086	-223.04258907769758	338.06601220539767	24.768747206169994
21	0.1	-144.84943046816997	620.0051330542947	283.55730983789545	-264.7704985096393	500.4904765263176	19.35197312456719	-223.0158929345048	338.0366296698895	24.766469044151233
22	0.105	-144.84801388474057	620.0135539785756	283.5683905314276	-264.7594905221847	500.4753701014031	19.357216292122175	-222.98796686024747	338.0071065600904	24.761815618221554
23	0.11	-144.84713567304257	620.0224405903488	283.57819099947284	-264.7471093760173	500.46054870444607	19.36105660800993	-222.95886456285618	337.9775541851674	24.75468412060029
24	0.115	-144.84679297495256	620.031790726861	283.58668221514455	-264.73333461512476	500.4460887778049	19.36342543958175	-222.92864737845846	337.94808936891656	24.744977108464173
25	0.12	-144.846980113295	620.0416008593521	283.5938392246948	-264.71815022408487	500.43206914315226	19.364257254882226	-222.89738441633028	337.9188342371317	24.732603209090087
26	0.125	-144.84768848523055	620.0518660568372	283.59964134562034	-264.70154490627044	500.4185707955113	19.363490056649237	-222.8651526802844	337.88991597153756	24.717477837501562
27	0.13	-144.84890646080922	620.0625799522828	283.6040723564783	-264.68351235719746	500.4056766772494	19.361065824429673	-222.83203716486736	337.86146652949856	24.69952392439576
28	0.135	-144.85061928709283	620.073734711223	283.60712067772414	-264.6640515317533	500.3934714318525	19.356930963516653	-222.79813092476314	337.8336223288045	24.67867265198298
29	0.14	-144.85280899824195	620.0853210028458	283.6087795429021	-264.64316690400915	500.38204113737277	19.351036759329713	-222.76353511583534	337.80652389693796	24.654864195229223
30	0.145	-144.85545433195523	620.0973279735703	283.6090471595328	-264.6208687182934	500.3714730195186	19.343339835776916	-222.72835900628513	337.780315484329	24.62804846585533
31	0.15	-144.85853065263538	620.1097432231187	283.6079268590601	-264.59717323017423	500.3618551444299	19.333802616057948	-222.69271995645414	337.75514464122284	24.59818585631365
32	0.155	-144.86200988164828	620.1225527830835	283.6054272352399	-264.5721029359835	500.3532760912667	19.32239378428986	-222.6567433658638	337.73116175790074	24.565247980837135
33	0.16	-144.86586043502507	620.1357410979714	283.6015622703717	-264.54568678949335	500.3458246048201	19.309088746263342	-222.6205625861528	337.7085195681242	24.529218410535712
34	0.165	-144.8700471689464	620.1492910086982	283.596351448798	-264.51796040435056	500.33958922844795	19.29387008756725	-222.58431879865537	337.6873726158077	24.490093399402724
35	0.17	-144.87453133333085	620.1631837384999	283.58981985711983	-264.48896624086393	500.3346579177229	19.276728027253313	-222.54816085545343	337.66787668506265	24.447882597990308
36	0.175	-144.87927053383464	620.1773988812107	283.58199827060105	-264.4587537757433	500.33111763528166	19.25766086515175	-222.51224508283445	337.650188193904	24.402609751418154
37	0.18	-144.88421870255152	620.1919143918541	283.57292322526274	-264.42737965339325	500.3290539274552	19.23667542089286	-222.47673504619632	337.6344635520612	24.354313378295537
38	0.185	-144.88932607768444	620.2067065794805	283.5626370751966	-264.394907817377	500.3285504833649	19.213787462639516	-222.44180127555907	337.620858483496	24.30304742706339
39	0.19	-144.89453919244002	620.2217501021763	283.55118803465666	-264.36140962068407	500.32968867726584	19.18902212349162	-222.40762095097085	337.6095273143891	24.248881906201685
40	0.195	-144.89980087337727	620.2370179641647	283.5386302045218	-264.3269639134625	500.33254709502637	19.16241430348649	-222.37437754723283	337.6006222275288	24.191903484698834
41	0.2	-144.90505024841858	620.2524815149069	283.5250235827544	-264.29165710690637	500.33720104573365	19.13400905508925	-222.34226043751306	337.5942924842042	24.13221605914499
42	0.205	-144.91022276471122	620.2681104501099	283.51043405851675	-264.2555832120292	500.34372205952275	19.103861950045015	-222.3114644555753	337.59068361488323	24.069941283790513
43	0.21	-144.91525021650054	620.2838728145372	283.49493338964294	-264.21884385210296	500.3521773728331	19.072039425450473	-222.28218941651016	337.5899365801338	24.00521905990582
44	0.215	-144.9200607831538	620.2997350065147	283.47859916320414	-264.1815482475931	500.36262940239817	19.038619106896913	-222.25463959602754	337.5921869034288	23.93820798078971
45	0.22	-144.92457907744688	620.3156617840249	283.4615147389459	-264.143813172484	500.3751352093843	19.00369010653996	-222.22902316854734	337.59756377765996	23.86908572880066
46	0.225	-144.92872620419962	620.3316162722693	283.44376917541564	-264.1057628809576	500.38974595519676	18.96735329396407	-222.2055516045105	337.60618914737046	23.798049420830967
47	0.23	-144.93241982931883	620.3475599725824	283.4254571386457	-264.0675290034662	500.40650635057216	18.92972153773204	-222.18443902752347	337.61817676890155	23.72531589870635
48	0.235	-144.93557425927895	620.3634527725776	283.4066787933004	-264.0292504113215	500.42545409968056	18.890919915542298	-222.1659015321456	337.6336312508358	23.6511219610755
49	0.24	-144.9381005310424	620.3792529574031	283.3875396762423	-263.991073049021	500.4466193410565	18.851085890959265	-222.15015646333086	337.6526470773026	23.575724533454746
50	0.245	-144.93990651239093	620.3949172219847	283.3681505525212	-263.9531497336256	500.4700240872718	18.810369454735437	-222.1374216587405	337.67530761689727	23.499400773213303
51	0.25	-144.94089701261055	620.4104006841342	283.34862725383914	-263.9156399206149	500.4956816653562	18.76893322880786	-222.127914655351	337.70168412014243	23.422448106424497
52	0.255	-144.94097390344052	620.4256568984027	283.3290904995932	-263.8787094357589	500.52359616005674	18.72695253112659	-222.12185186199315	337.73183470860204	23.34518419366861
53	0.26	-144.9400362501669	620.4406378705594	283.30966570065107	-263.8425301726676	500.5537618621087	18.684615399558837	-222.11944769966829	337.7658033589265	23.267946822053055
54	0.265	-144.9379804527091	620.4552940725788	283.29048274606566	-263.80727975580885	500.58616272376446	18.642122573209747	-222.12091371170058	337.80361888527835	23.1910937209161
55	0.27	-144.93470039651672	620.4695744580275	283.27167577298866	-263.77314116891955	500.62077182389714	18.59968742960903	-222.1264576459934	337.8452939237461	23.115002298901125
56	0.275	-144.9300876130619	620.4834264777375	283.25338292009593	-263.7403023488762	500.65755084505804	18.557535876332384	-222.13628251186654	337.89082392250987	23.040069300328653
57	0.28	-144.9240314496804	620.4967960956661	283.23574606489194	-263.70895574524	500.6964495649189	18.515906195756997	-222.15058561415572	337.94018614166447	22.96671037905368
58	0.285	-144.9164192484841	620.5096278048464	283.218910545317	-263.67929784584135	500.7374053645776	18.47504884179203	-222.16955756745534	337.9933386667439	22.895359588275156
59	0.29	-144.90713653403395	620.5218646433353	283.20302486613144	-263.6515286689281	500.7803427562426	18.43522618757695	-222.19338129357908	338.0502194401138	22.82646878506236
60	0.295	-144.89606720943365	620.5334482100797	283.1882403906096	-263.6258512225611	500.82517293283684	18.3967122233032	-222.22223100550013	338.11074531451084	22.76050694867879
61	0.3	-144.8830937604711	620.5443186806239	283.1747110181282	-263.6024709321067	500.8717933420803	18.359792203487004	-222.25627118120994	338.1748111331105	22.69795941211696
62	0.305	-144.86809746740656	620.5544148225921	283.1625928482881	-263.58159503684305	500.9200872876181	18.32476224320336	-222.29565553110405	338.24228884058755	22.639327006606692
63	0.31	-144.85095862397483	620.5636740108929	283.1520438322629	-263.56343195686685	500.96992355975067	18.291928862982374	-222.3405259626582	338.31302662970694	22.58512511922335
64	0.315	-144.83155676314166	620.5720322425942	283.14322341211823	-263.54819063165723	501.0211560983133	18.261608482268848	-222.39101154630424	338.38684812803575	22.535882664100093
65	0.32	-144.80977088912508	620.5794241514376	283.1362921488995	-263.5360798318274	501.0736236902168	18.234126861553587	-222.4472274865459	338.4635516294062	22.492140968138365
66	0.325	-144.78547971516568	620.5857830219634	283.13141134033225	-263.5273074457624	501.127149704123	18.209818493499885	-222.50927410246896	338.5429093747773	22.45445257251162
67	0.33	-144.7585619065048	620.591040803235	283.1287426290319	-263.52207974301484	501.1815418646754	18.18902594360979	-222.5772358219011	338.6246668871448	22.423379951667116
